<svg xmlns="http://www.w3.org/2000/svg" version="1.1" width="600px" height="600px" viewBox="0 0 200 200" style="overflow:hidden!important;"><g id="svga-group-wrapper"><g id="svga-group-backs-single"><path id="SvgjsPath14660" d="M0 0h200v200H0V0z" fill="#45ada8" stroke-width="none" opacity="1"></path><path id="SvgjsPath14661" d="M6.5 16.3c4-9.2 13.8-13.8 22-11.3 6 1.9 10.6 7.5 11.8 14.3 0 0 25.4-15.2 41.7 1.1 6.1 6.1 6.7 17.8-4.9 27.2-8.8 7.2-19.5 1.4-19.5 1.4 2 5.6.6 11.5-3 14.3-5 3.8-14.5 2.2-18.9-5.8 0 0 2.5 13.2-12.6 15.4C7.9 75.1 8.7 60 8.7 60s-.9 4.4-8.7 4.4V13s1.4-.3 3.2.5 3.3 2.8 3.3 2.8zm136.2 47.3c-.2-.7-4.6-9.9-15.2-9-10.6.9-7.6 14.8-7.6 14.8s-14.3.5-15.5 11.8S116.4 103 134 92c0 0 13.9 14.1 28.9-.9 0 0 21 12.7 28.4.2S182.9 73 182.9 73s6.5-15.7-12-12c0 0-3-9-13.2-8.5-10.1.4-15 11.1-15 11.1zM81.6 149s-5.5 6.7-16.8 5.1c-11.3-1.6-12.2-10.9-12.2-10.9s-14.3 12.5-31.6 3-7.9-26.3-.7-30.7 20.3-.5 20.3-.5-1.6-4.8 4.6-8.5c6.2-3.7 11.3 1.8 11.3 1.8s1.2-8.3 14.1-8.1S83 112.5 83 112.5s5.1-9.2 16.4-3.7 7.6 14.3 7.6 14.3 3-3.7 6.5-4.2 7.6 3 7.2 6.9c0 0 8.8-8.1 20.3 5.5s-11.3 28.2-21.9 15.9c0 0-3.5 10.6-20.1 9.5S81.6 149 81.6 149zm72.7 19.1s-2.8-6.2-10.9-6-7.9 9.7-7.9 9.7-6-5.8-12-1.4 0 11.3 0 11.3-5.8.5-5.3 6.2 12.9 12.9 26.8-.2c0 0 4.2 6.7 11.3 4.9 7.2-1.9 6.9-8.5 6.9-8.5s9.7 8.5 19.2 2.5 6.7-23.6-8.8-24.5c-15.4-.9-19.3 6-19.3 6zM126.5 0s-7.4 3.7-5.5 12.9 16.1 8.3 19.6 3.5c0 0-2.8 9.7 7.4 10.1 0 0-.2 16.8 18.4 11s16.3-22.3 16.3-22.3 2.5 12.9 17.4 12.9V0h-73.6zM0 195.2s19.3 7.9 29.6-9.4-11.8-20.6-15.4-15.7c0 0 1.6-16.7-14.2-13.2v38.3z" fill="#ffffff" stroke-width="none" opacity="1"></path></g><g id="svga-group-humanwrap-move" transform="matrix(1,0,0,1,0,0)"><g id="svga-group-humanwrap"><g id="svga-group-hair-back-move" transform="matrix(1,0,0,1,0,0)"><g id="svga-group-hair-back"><path id="SvgjsPath13857" d="m85.2 45-21 15.4-8 74.7 4.8 29.8 16.2 3.7 49.5.5.5-17.6 1.3 17.3 12-3.2 5.3-4-2.9-76.6-4.2-18.9s-14.6-21-15.4-20.7-38.1-.4-38.1-.4z" fill="#221b23" stroke-width="none" opacity="1" stroke="none"></path></g></g><g id="svga-group-humanbody-back"><path id="SvgjsPath13534" d="m168.2 200-4.6-14.2-34.9-13.4-10.8-9.7-1.4-50.5h-33l-1.4 50.5-10.8 9.7-34.9 13.4-4.6 14.2-3 20h142.4z" fill="#ffd0bc" stroke-width="none" opacity="1" stroke="none"></path><path id="SvgjsPath13535" d="m83.5 112.2-1.4 50.5-10.8 9.7-34.9 13.4-4.6 14.2-3 20H39v-20l1.7-13.3 32.1-12.9 14.1-9.5 2-52.1z" fill="#e09879" stroke-width="none" opacity="1" stroke="none"></path></g><g id="svga-group-chinshadow-single"><path id="SvgjsPath13530" d="m117.5 150.3-1-38.2h-33l-1.1 42.1c2.9 2 6 3.9 9.3 5.8l5.5 1.1 5.5-1.1c5.6-3.1 10.6-6.5 14.8-9.7z" fill="#d17f5b" stroke-width="none" opacity="1" stroke="none"></path></g><g id="svga-group-humanbody-front"></g><g id="svga-group-clothes-single"><path id="SvgjsPath14068" d="M137.89 198.5 100 215.32 62.11 198.5 55.2 220h89.6z" fill="#335529" stroke-width="none" opacity="1" stroke="none"></path><path id="SvgjsPath14069" d="m139.69 198.13 4.92-20.09-3.11-1.03-5.22 21.03L100 214.43l-36.28-16.39-5.22-21.03-3.11 1.03 4.92 20.09L53.88 220h2.73l5.9-20L100 216.02 137.49 200l5.9 20h2.73z" fill="#24461b" stroke-width="none" opacity="1" stroke="none"></path></g><g id="svga-group-head" transform="matrix(1,0,0,1,0,0)"><g id="svga-group-ears-left-move" transform="matrix(1,0,0,1,0,0)"><g id="svga-group-ears-left"><path id="SvgjsPath13484" d="M61.9 93s-5.5-3-7.7-3.9c0 0-3.9 5.4-5.1 7.2 0 0 3.1 14.7 3.9 17.3l5 6.5 5.4-1.7 4.2-14.2L61.9 93z" fill="#ffd0bc" stroke-width="none" opacity="1" stroke="none"></path><path id="SvgjsPath13485" d="M59.8 104.7c-.2-.4-6-10-6-10l-2.3 7.9 2.6-2.4 1.6 2.9s-.3 5-.2 5.5c0 .5 2.4 4.3 2.4 4.3l1.9-8.2z" fill="#e09879" stroke-width="none" opacity="1" stroke="none"></path><path id="SvgjsPath13486" d="m59.4 98-5.2-8.9c2.2.9 7.7 1.8 7.7 1.8l5.7 13.3-4.2 14.2-5.4 1.7 3.6-3.4L59.4 98z" fill="#f0b399" stroke-width="none" opacity="1" stroke="none"></path></g></g><g id="svga-group-ears-right-move" transform="matrix(1,0,0,1,0,0)"><g id="svga-group-ears-right"><path id="SvgjsPath13487" d="M138.1 93s5.5-3 7.7-3.9c0 0 3.9 5.4 5.1 7.2 0 0-3.1 14.7-3.9 17.3l-5 6.5-5.4-1.7-4.2-14.2 5.7-11.2z" fill="#ffd0bc" stroke-width="none" opacity="1" stroke="none"></path><path id="SvgjsPath13488" d="M140.2 104.7c.2-.4 6-10 6-10l2.3 7.9-2.6-2.4-1.6 2.9s.3 5 .2 5.5c0 .5-2.4 4.3-2.4 4.3l-1.9-8.2z" fill="#e09879" stroke-width="none" opacity="1" stroke="none"></path><path id="SvgjsPath13489" d="m140.6 98 5.2-8.9c-2.2.9-7.7 1.8-7.7 1.8l-5.7 13.3 4.2 14.2 5.37 1.68-3.57-3.38 2.2-18.7z" fill="#f0b399" stroke-width="none" opacity="1" stroke="none"></path></g></g><g id="svga-group-faceshape-wrap"><g id="svga-group-faceshape-single"><path id="SvgjsPath13516" d="M136.8 61c-6.7-11.2-19-18.9-19-18.9-7-1.5-17.8-2.2-17.8-2.2s-10.8.8-17.8 2.2c0 0-12.4 7.6-19 18.9 0 0-5 14-5.2 23.9 0 0 1.4 33.9 4.4 42.6 0 0 12.2 14.4 32.1 25.5l5.5 1.1 5.5-1.1c19.9-11.1 32.1-25.5 32.1-25.5 3-8.7 4.4-42.6 4.4-42.6-.3-9.8-5.2-23.9-5.2-23.9z" fill="#ffd0bc" stroke-width="none" opacity="1" stroke="none"></path><path id="SvgjsPath13517" d="M83.9 44.1c8.8-3 33.9-2 33.9-2-7-1.5-17.8-2.2-17.8-2.2s-10.8.8-17.8 2.2c0 0-12.4 7.6-19 18.9 0 0-5 14-5.2 23.9 0 0 1.4 33.9 4.4 42.6 0 0 8.6 10.2 23.2 20-8.6-8.6-16.4-24.8-16.4-24.8-2.1-9.7-7.4-39-7.4-39 0-3.5 3.9-20.6 3.9-20.6 2-3.9 18.2-19 18.2-19z" fill="#e09879" stroke-width="none" opacity="1" stroke="none"></path></g></g><g id="svga-group-mouth-single-move" transform="matrix(1,0,0,1,0,0)"><g id="svga-group-mouth-single"><path id="SvgjsPath13468" d="m87.96 131.11 4.64-3.77 7.45-2.09 8.12 2.13 5.03 3.98-4.02 5.11-8.96 1.59-8.29-1.72z" fill="#da7c87" stroke-width="none" opacity="1" transform="translate(0 3)" stroke="none"></path><path id="SvgjsPath13469" d="M86.41 130.7s5.76 2.19 5.91 2.14c.15-.05 5.99-2.33 5.99-2.33l4.35.08 6.1 2.14 6.76-1.77-6.79 1.06-5.96-2.21h-4.71l-5.81 2.18-5.84-1.29z" fill="#cb5f6c" stroke-width="none" opacity="1" transform="translate(0 3)" stroke="none"></path><path id="SvgjsPath13470" d="m89.94 130.54 3.1-2.47 6.87-1.93-6.73 2.27z" fill="#f9bfc6" stroke-width="none" opacity="1" transform="translate(0 3)" stroke="none"></path><path id="SvgjsPath13471" d="m110.8 132.87-2.22 2.85-7.6 1.7 7.26-1.94z" fill="#f9bfc6" stroke-width="none" opacity="1" transform="translate(0 3)" stroke="none"></path></g></g><g id="svga-group-eyes-left-move" transform="matrix(1,0,0,1,0,0)"><g id="svga-group-eyes-left"><g id="svga-group-eyesback-left"><path id="SvgjsPath13606" d="m91.1 102.6-4.4-3.8-8.3-2.2-8.4.3 7.7 5.7 3.5 1z" fill="#ffffff" stroke-width="none" opacity="1"></path></g><g id="svga-group-eyesiriswrapper-left" transform="matrix(1,0,0,1,0,0)"><g id="svga-group-eyesiriscontrol-left" transform="matrix(1,0,0,1,0,0)"><g id="svga-group-eyesiris-left"><path id="SvgjsPath13550" d="m78.1 102.2-.7-4.4 3.5-3 4.2 1.6.8 4.5-3.5 2.9z" fill="#7b5c33" stroke-width="none" opacity="1"></path><path id="SvgjsPath13551" d="m80.9 95.3 3.9 1.4.7 4.1-3.2 2.6-3.9-1.4-.7-4.1 3.2-2.6m-.1-.9L77 97.6l.9 4.9 4.7 1.7 3.8-3.2-.9-4.9-4.7-1.7z" fill="#6c4c22" stroke-width="none" opacity="1"></path><path id="SvgjsPath13552" d="m80.8 94.7 4.5 1.6.8 4.7-3.7 3.1-4.4-1.6-.8-4.7 3.6-3.1m-.1-.6-4.1 3.4.9 5.2 5 1.8 4.1-3.4-.9-5.2-5-1.8z" fill="#5c3d14" stroke-width="none" opacity="1"></path><path id="SvgjsPath13553" d="m78.9 100.2.6-2.8 2.7-.8 2.1 1.8-.5 2.8-2.7.9z" fill="#000000" stroke-width="none" opacity="1"></path><path id="SvgjsPath13554" d="M79.8 97h1.6v1.6h-1.6V97zm2.2 4h.9v.9H82v-.9z" fill="#ffffff" stroke-width="none" opacity="1"></path></g></g></g><g id="svga-group-eyesfront-left"><path id="SvgjsPath13614" d="M68 94.5v11.1l7.7 7.9h10.9l7.7-7.9V94.5l-7.7-7.9H75.7L68 94.5zm2 2.4 8.4-.2 8.3 2.2 4.5 3.8-9.9 1-3.5-.9-7.8-5.9z" fill="#ffd0bc" stroke-width="none" opacity="1" stroke="none"></path><path id="SvgjsPath13615" d="m92.2 102.7-1.1-.1-4.4-3.8-8.3-2.2-8.4.3 2.7-1.8 8.3-1.7 7.4 2.3z" fill="#f7c1aa" stroke-width="none" opacity="1" stroke="none"></path><path id="SvgjsPath13616" d="m72.6 97.1-2.9.2-6-.8 6.3.1 9-.5 8 2.4 5.2 4.2-1 .1-4.6-3.8-8.3-2.2h-.7l-2.5 1.4-2.5.9 2.3-1.2 1.5-1-1.8.1-2.3.9-5.7.9 5.5-1.4z" fill="#000000" stroke-width="none" opacity="1" stroke="none"></path></g></g></g><g id="svga-group-eyes-right-move" transform="matrix(1,0,0,1,0,0)"><g id="svga-group-eyes-right"><g id="svga-group-eyesback-right"><path id="SvgjsPath13607" d="m108.9 102.6 4.4-3.8 8.3-2.2 8.4.3-7.7 5.7-3.5 1z" fill="#ffffff" stroke-width="none" opacity="1"></path></g><g id="svga-group-eyesiriswrapper-right" transform="matrix(1,0,0,1,0,0)"><g id="svga-group-eyesiriscontrol-right" transform="matrix(1,0,0,1,0,0)"><g id="svga-group-eyesiris-right"><path id="SvgjsPath13555" d="m114.9 102.2-.8-4.4 3.5-3 4.3 1.6.7 4.5-3.5 2.9z" fill="#7b5c33" stroke-width="none" opacity="1"></path><path id="SvgjsPath13556" d="m117.7 95.3 3.9 1.4.7 4.1-3.2 2.6-3.9-1.4-.7-4.1 3.2-2.6m-.2-.9-3.8 3.2.9 4.9 4.7 1.7 3.8-3.2-.9-4.9-4.7-1.7z" fill="#6c4c22" stroke-width="none" opacity="1"></path><path id="SvgjsPath13557" d="m117.6 94.7 4.5 1.6.8 4.7-3.6 3-4.5-1.6-.8-4.7 3.6-3m-.2-.6-4.1 3.4.9 5.2 5 1.8 4.1-3.4-.9-5.2-5-1.8z" fill="#5c3d14" stroke-width="none" opacity="1"></path><path id="SvgjsPath13558" d="m115.7 100.2.5-2.8 2.7-.8 2.2 1.8-.6 2.8-2.7.9z" fill="#000000" stroke-width="none" opacity="1"></path><path id="SvgjsPath13559" d="M116.6 97h1.6v1.6h-1.6V97zm2.1 4h.9v.9h-.9v-.9z" fill="#ffffff" stroke-width="none" opacity="1"></path></g></g></g><g id="svga-group-eyesfront-right"><path id="SvgjsPath13617" d="M124.3 86.6h-10.9l-7.7 7.9v11.1l7.7 7.9h10.9l7.7-7.9V94.5l-7.7-7.9zm-2 16-3.5.9-9.9-1 4.5-3.8 8.3-2.2 8.4.2-7.8 5.9z" fill="#ffd0bc" stroke-width="none" opacity="1" stroke="none"></path><path id="SvgjsPath13620" d="m107.8 102.7 1.1-.1 4.4-3.8 8.3-2.2 8.4.3-2.7-1.8-8.3-1.7-7.4 2.3z" fill="#f7c1aa" stroke-width="none" opacity="1" stroke="none"></path><path id="SvgjsPath13621" d="m127.4 97.1 2.9.2 6-.8-6.3.1-9-.5-8 2.4-5.2 4.2 1 .1 4.6-3.8 8.3-2.2h.7l2.5 1.4 2.5.9-2.3-1.2-1.5-1 1.8.1 2.3.9 5.7.9-5.5-1.4z" fill="#000000" stroke-width="none" opacity="1" stroke="none"></path></g></g></g><g id="svga-group-facehighlight-single"></g><g id="svga-group-eyebrows-left-move" transform="matrix(1,0,0,1,0,0)"><g id="svga-group-eyebrows-left-rotate" transform="matrix(1,1.7453292519943295e-9,-1.7453292519943295e-9,1,1.5341443315719516e-7,-1.3971360601772176e-7)"><g id="svga-group-eyebrows-left"><path id="SvgjsPath13664" d="m93.2 89.1-.6 1.9-2.1 1.2-11.6-5.5-7.1-.1-4.9 3.1 4.3-4.7 7.5-1.4 9.1 2.7z" fill="#504543" stroke-width="none" opacity="1"></path><path id="SvgjsPath13665" d="m90 87.5.8.4-.4 2.5-.4-2.9zm-5.5-2.2 1.4 2.4-1.9-2.5.5.1zm3.3 1 .3.2c.2 1.3.5 3.4.5 3.4l-1.4-3.7.6.1zm-5.6-1.6.7 1.3-2-1.7 1.3.4zM71 86.3c-.1 0 0 0 0 0zm-1.7.7c.7-.3 1.3-.6 1.6-.7-.3.2-1.4 1-2.5 1.7l.9-1zm6-2.7 1.6 1.6-2.1-1.5.5-.1zm-4.1.7 1.5-.3 2.3.7c0 .1-2.2-.2-3.8-.4z" fill="#5f5a59" stroke-width="none" opacity="1"></path></g></g></g><g id="svga-group-eyebrows-right-move" transform="matrix(1,0,0,1,0,0)"><g id="svga-group-eyebrows-right-rotate" transform="matrix(1,1.7453292519943295e-9,-1.7453292519943295e-9,1,1.5341443315719516e-7,-2.093522368795675e-7)"><g id="svga-group-eyebrows-right"><path id="SvgjsPath13666" d="m106.8 89.1.6 1.9 2.1 1.2 11.6-5.5 7.1-.1 4.9 3.1-4.3-4.7-7.5-1.4-9.1 2.7z" fill="#504543" stroke-width="none" opacity="1"></path><path id="SvgjsPath13667" d="m110 87.5-.8.4.4 2.5.4-2.9zm5.5-2.2-1.4 2.4 1.9-2.5-.5.1zm-3.3 1-.3.2c-.2 1.3-.5 3.4-.5 3.4l1.4-3.7-.6.1zm5.6-1.6-.7 1.3 2-1.7-1.3.4zm11.2 1.6c.1 0 0 0 0 0zm1.7.7c-.7-.3-1.4-.6-1.6-.7.3.2 1.4 1 2.5 1.7l-.9-1zm-6-2.7-1.6 1.6 2.1-1.5-.5-.1zm4.1.7-1.5-.3-2.3.7c0 .1 2.2-.2 3.8-.4z" fill="#5f5a59" stroke-width="none" opacity="1"></path></g></g></g><g id="svga-group-nose-single-move" transform="matrix(1,0,0,1,0,0)"><g id="svga-group-nose-single"><path id="SvgjsPath13652" d="m105.55 110.57 3.31 6.99-1.46 2.7-2.53-.2.19-.4 2.63-.9-3.21.2-2.53 3.5H98.06l-2.52-3.5-3.21-.2 2.62.9.2.4-2.53.2-1.46-2.7 3.31-6.99-4.09 7.09 1.95 3.5 3.69-.5 1.85 2.5h4.28l1.84-2.5 3.7.5 1.94-3.5z" fill="#e09879" stroke-width="none" opacity="1" transform="translate(0 2)" stroke="none"></path><path id="SvgjsPath13653" d="m93.56 113.36 2.55 4.19 6.9.11-6.96.45z" fill="#e09879" stroke-width="none" opacity="1" transform="translate(0 2)" stroke="none"></path><path id="SvgjsPath13654" d="m95.6 111.94 1.93 4.42 5.56.17 1.51-4.81z" fill="#ffd9c9" stroke-width="none" opacity="1" transform="translate(0 2)" stroke="none"></path></g></g><g id="svga-group-hair-front"><path id="SvgjsPath13853" d="m147.9 115.1-3.5-46.3-10.3-19.7-14.1-11-10.3-2.1-9.9 2.8-9.8-2.9L76.7 38 61.2 55.2l-7.6 25.2-1.8 49.7 2.9 30.6 2.1 2.7-2.8-26.1 4.4 26.9 8.5 2.9-4.5-25.2 6.6 25.3 8 1.3-7.1-37.5-3-45.2 10.2-29.5 9.1-3.4 14.9 5.1 13.6-5.3 9 5.4 8.9 27.4.4 41.2-2.6 42.3 3.2-1.6 5.1-15.9-2.7 16.2 5.3-2.6 1.4-22.6 1.3 22 5.1-5z" fill="#2a232b" stroke-width="none" opacity="1" stroke="none"></path><path id="SvgjsPath13854" d="m81.3 49.2-6.9 6.4L65.6 85l3.2 29-2-28.1 10.1-29.5 9-3.5 14.9 5.1-7.1-4.2-12.4-4.6zm43.8 5.6-12.6-6.4-7 6.1-4.7 3.5 13.6-5.3 9 5.3 9 27.4.3 22.6 1.6-25.8-9.2-27.4zm-25.9-2.5-18.9-7.8L68.2 55l-5.5 31.5 4.4 57.9 3.7 19.1-5.1-20.2-5.3-58.6 6.4-31.3 13.8-10.8 18.6 9.7zm-.6-2.3 9.4-7.6 17.5 5 12.9 20.9 1.8 22.1-.5 46.7-1.2 12v-13.8l-.7-49.2-2.1-18.4-11.5-19.1L108 44l-9.4 6zM54.7 86.1l2.3 46 5.7 26.9-7.3-28.3-.7-44.6zm89.6 6.2 2.1 47.4-.4 18.4 2.1-19.3-3.8-46.5z" fill="#3a353a" stroke-width="none" opacity="1" stroke="none"></path><path id="SvgjsPath13855" d="m99 53.4 9-8 16.3 4.1 11 19.1 2.5 17.5-3 50.1.7-51.5-2.5-16.1-11-17.9-13.6-3.2-9.4 5.9zm-3.7-.9-14-6.2-11.5 9.2-7.1 31 5.1 43-3.2-43.4L72.2 56l10.3-7.1 12.8 3.6z" fill="#221b23" stroke-width="none" opacity="1" stroke="none"></path><path id="SvgjsPath13856" d="m98.1 44.9-17-5.1-12.2 9.4 12.9-7.6 16.3 3.3zm1.8-.7 10.1-5.5 13.6 4.8-13.8-2.3-9.9 3zm-.9-3.4-8.7-3-4.6.7L99 40.8zM59 71.3l-2.5 11 2.8 48L62 141l-.9-12.4-2.5-47.1.4-10.2zm81.9 9.2 1.6 31.7-.7 25.3 2.3-26.2-3.2-30.8z" fill="#322c33" stroke-width="none" opacity="1" stroke="none"></path></g><g id="svga-group-glasses-single-move" transform="matrix(1,0,0,1,0,0)"><g id="svga-group-glasses-single" transform="matrix(1.1500006000000005,0,0,1.1500006000000005,-15.0075593433518,-14.917559784441423)"><path id="SvgjsPath13696" d="M88.5 89.4h-8.3l-5.9 5.9v8.3l5.9 5.9h8.3l5.9-5.9v-8.3z" fill="#ffffff" stroke-width="none" opacity="0.28"></path><path id="SvgjsPath13697" d="m89.7 103.7.1-.2-12.1-10.6-.2.2 12.2 10.6zm-3.7 4.4.2-.2-9.5-8.2-.1.2 9.4 8.2zm6.2-8.1.1-.2-9.4-8.2-.2.2 9.5 8.2zm-3.2-.5.1-.2-9.5-8.2-.1.2 9.5 8.2z" fill="#ffffff" stroke-width="none" opacity="0.67"></path><path id="SvgjsPath13698" d="M111.5 89.4h8.3l5.9 5.9v8.3l-5.9 5.9h-8.3l-5.9-5.9v-8.3z" fill="#ffffff" stroke-width="none" opacity="0.28"></path><path id="SvgjsPath13699" d="m121.3 104 .2-.2-12.2-10.6-.1.2 12.1 10.6zm-3.6 4.5.1-.3-9.5-8.2-.1.2 9.5 8.3zm6.1-8.2.2-.2-9.5-8.2-.1.2 9.4 8.2zm-3.2-.4.2-.3-9.5-8.2-.2.2 9.5 8.3z" fill="#ffffff" stroke-width="none" opacity="0.67"></path><path id="SvgjsPath13700" d="M126.2 95.6v-.5l-6.2-6.2h-8.7l-6.2 6.2v3.5H94.9v-3.5l-6.2-6.2H80l-6.2 6.2v.5H71v2.8h2.8v5.4L80 110h8.7l6.2-6.2V100h10.3v3.8l6.2 6.2h8.7l6.2-6.2v-5.4h2.8v-2.8h-2.9zm-32.3 7.8-5.6 5.6h-7.9l-5.6-5.6v-7.9l5.6-5.6h7.9l5.6 5.6v3.1h-.5v1.4h.5v3.4zm31.3 0-5.6 5.6h-7.9l-5.6-5.6V100h.4v-1.4h-.4v-3.1l5.6-5.6h7.9l5.6 5.6v7.9z" fill="#ffffff" stroke-width="none" opacity="1"></path></g></g></g></g></g><rect id="svga-credit-rect" width="200" height="15" x="0" y="185" fill="#ecf0f1" opacity="0.5" style="display: none;"></rect><text id="svga-credit-text" font-family="Avenir Next, Roboto, Helvetica, Arial, sans-serif" font-size="10px" text-anchor="start" font-weight="400" size="10px" anchor="start" weight="400" fill="#333333" x="33.40447998046875" y="182.60824704170227" style="display: none;"><tspan id="SvgjsTspan13462" dy="13" x="33.40447998046875">Created on AvatarMaker.com</tspan></text></g><defs id="SvgjsDefs13414"></defs></svg>